<svg xmlns="http://www.w3.org/2000/svg" viewBox="0 0 200 60" role="img" aria-labelledby="nubank-title">
  <title id="nubank-title">Nubank</title>
  <rect width="200" height="60" fill="none"/>
  <g fill="#820AD1">
    <path d="M44 18c5.6 0 9.3 3.7 9.3 9.5V43h-7V28.9c0-3.1-1.7-4.9-4.4-4.9-2.9 0-4.9 2-4.9 5.4V43h-7V18.7h6.7v3.1c1.8-2.4 4.3-3.8 7.3-3.8Z"/>
    <path d="M73.3 18.7h7V43h-6.7v-3c-1.8 2.4-4.4 3.7-7.4 3.7-5.5 0-9.2-3.7-9.2-9.5V18.7h7v14.2c0 3 1.7 4.8 4.4 4.8 2.9 0 4.9-2 4.9-5.3V18.7Z"/>
    <path d="M99 18c6.4 0 11.7 5.4 11.7 12.9 0 7.4-5.3 12.8-11.7 12.8-3.4 0-6.1-1.3-8-3.5V43h-6.7V9h7v12.5c1.9-2.2 4.5-3.5 7.7-3.5Zm-1.3 19.3c3.5 0 6.1-2.6 6.1-6.4s-2.6-6.5-6.1-6.5c-3.6 0-6.3 2.7-6.3 6.5s2.7 6.4 6.3 6.4Z"/>
    <path d="M128.2 18.7h6.7V43h-6.7v-2.8c-1.9 2.2-4.6 3.5-8 3.5-6.4 0-11.7-5.4-11.7-12.8 0-7.5 5.3-12.9 11.7-12.9 3.4 0 6.1 1.3 8 3.5v-2.8Zm-6.6 18.6c3.6 0 6.3-2.6 6.3-6.4s-2.7-6.5-6.3-6.5-6.2 2.7-6.2 6.5 2.6 6.4 6.2 6.4Z"/>
    <path d="M153.3 18c5.6 0 9.3 3.7 9.3 9.5V43h-7V28.9c0-3.1-1.7-4.9-4.4-4.9-2.9 0-4.9 2-4.9 5.4V43h-7V18.7h6.7v3.1c1.8-2.4 4.3-3.8 7.3-3.8Z"/>
    <path d="M183.7 43h-8.2l-8.1-10.6V43h-7V9h7v19.7l7.6-10h8.4l-9.4 11.8L183.7 43Z"/>
  </g>
</svg>
